# xmcd CD database file
#
# Track frame offsets:
#	150
#	25110
#	46067
#	88045
#	119910
#	146907
#	174645
#	211662
#	253917
#
# Disc length: 3707 seconds
#
# Revision: 0
# Processed by: cddbd v1.4PL0 Copyright (c) Steve Scherf et al.
# Submitted via: CDex 1.51
#
DISCID=810e7909
DTITLE=Marlena Shaw - Live in Tokyo
DYEAR=2002
DGENRE=Jazz
TTITLE0=Ooh Wee -Baby You're the One for Me
TTITLE1=Don't Ask to Stay Until Tomorrow
TTITLE2=Feel Like Makin' Love
TTITLE3=What a Difference a Day Made
TTITLE4=Rose Marie (Mon Cherie)
TTITLE5=Until I Met You
TTITLE6='Round Midnight
TTITLE7=My Foolish Heart
TTITLE8=Loving You Was Like a Party
EXTD=YEAR: 2002
EXTT0=
EXTT1=
EXTT2=
EXTT3=
EXTT4=
EXTT5=
EXTT6=
EXTT7=
EXTT8=
PLAYORDER=
